<?xml version="1.0" encoding="UTF-8"?>
<!DOCTYPE svg PUBLIC "-//W3C//DTD SVG 1.1//EN" "http://www.w3.org/Graphics/SVG/1.1/DTD/svg11.dtd">
<!-- Creator: CorelDRAW 2018 (64 Bit) -->
<svg xmlns="http://www.w3.org/2000/svg" xml:space="preserve" width="105.356mm" height="73.3356mm" version="1.1" style="shape-rendering:geometricPrecision; text-rendering:geometricPrecision; image-rendering:optimizeQuality; fill-rule:evenodd; clip-rule:evenodd"
viewBox="0 0 10535.6 7333.56"
 xmlns:xlink="http://www.w3.org/1999/xlink">
 <defs>
  <style type="text/css">
   <![CDATA[
    .str0 {stroke:#FEFEFE;stroke-width:7.62;stroke-miterlimit:22.9256}
    .fil3 {fill:none;fill-rule:nonzero}
    .fil5 {fill:#373435}
    .fil2 {fill:#FEFEFE;fill-rule:nonzero}
    .fil0 {fill:#373435;fill-rule:nonzero}
    .fil4 {fill:#C7DB5C;fill-rule:nonzero}
    .fil1 {fill:url(#id7)}
   ]]>
  </style>
      <clipPath id="id0">
       <path d="M5163.98 559.8l964.34 0 0 4262.3 -964.34 0 0 -4262.3z"/>
      </clipPath>
     <mask id="id1">
  <linearGradient id="id2" gradientUnits="userSpaceOnUse" x1="6300.21" y1="2485.12" x2="5570.15" y2="2594.07">
   <stop offset="0" style="stop-opacity:1; stop-color:white"/>
   <stop offset="0.831373" style="stop-opacity:0.501961; stop-color:white"/>
   <stop offset="1" style="stop-opacity:0; stop-color:white"/>
  </linearGradient>
      <rect style="fill:url(#id2)" x="5271.29" y="672.98" width="747.53" height="4041.1"/>
     </mask>
      <clipPath id="id3">
       <path d="M2901.14 0l3717.24 0 0 4478.69 -3717.24 0 0 -4478.69z"/>
      </clipPath>
      <clipPath id="id4">
       <path d="M3598.59 559.8l964.34 0 0 4262.3 -964.34 0 0 -4262.3z"/>
      </clipPath>
     <mask id="id5">
  <linearGradient id="id6" gradientUnits="userSpaceOnUse" x1="3426.71" y1="2485.12" x2="4156.77" y2="2594.07">
   <stop offset="0" style="stop-opacity:1; stop-color:white"/>
   <stop offset="0.831373" style="stop-opacity:-34.6392; stop-color:white"/>
   <stop offset="1" style="stop-opacity:0; stop-color:white"/>
  </linearGradient>
      <rect style="fill:url(#id6)" x="3708.24" y="673.12" width="747.25" height="4040.82"/>
     </mask>
  <linearGradient id="id7" gradientUnits="userSpaceOnUse" x1="6603.88" y1="5189.95" x2="3541.89" y2="-231.58">
   <stop offset="0" style="stop-opacity:1; stop-color:#339852"/>
   <stop offset="0.211765" style="stop-opacity:1; stop-color:#73B24A"/>
   <stop offset="1" style="stop-opacity:1; stop-color:#B4CD42"/>
  </linearGradient>
 </defs>
 <g id="Capa_x0020_1">
  <metadata id="CorelCorpID_0Corel-Layer"/>
  <g id="_1703380706304">
   <path class="fil0" d="M780.36 5862.83c0,122.88 -115.26,184.34 -345.59,184.34 -6.91,0 -15.6,-0.19 -26.07,-0.37 -10.63,-0.18 -22.87,-0.36 -36.69,-0.72 -13.84,-0.36 -26.08,-0.74 -36.35,-0.91 -10.47,-0.18 -19.16,-0.18 -26.08,-0.18 -162.06,0 -259.58,-31.18 -292.38,-93.53 -11.53,-21.57 -17.2,-51.12 -17.2,-88.63l0 -423.23c0,-27.55 13.47,-41.32 40.43,-41.32 26.06,0 42.73,1.09 50,3.26 16.84,5.25 25.36,18.12 25.36,38.25l0 415.07c0,41.14 24.46,68.51 73.22,82.28 14.54,3.63 31.92,6.34 51.78,7.98 19.86,1.81 43.44,2.72 70.4,2.72l159.04 0c60.64,0 101.24,-3.45 122.18,-10.16 48.75,-13.05 73.22,-40.41 73.22,-82.28l0 -415.61c0,-20.49 8.16,-33.36 24.47,-38.25 6.57,-2.17 23.05,-3.26 49.83,-3.26 26.95,0 40.43,13.77 40.43,41.51l0 423.04zm867.59 112.74c0,49.12 -21.11,73.77 -63.48,73.77 -19.32,0 -41.32,-10.51 -65.96,-31.36l-538.85 -467.82 0 452.96c0,20.84 -8.34,34.08 -25,39.33 -4.79,0.72 -11.36,1.27 -19.69,1.81 -8.33,0.54 -18.26,0.73 -30.14,0.73 -26.96,0 -40.43,-13.96 -40.43,-41.87l0 -539.41c0,-46.76 19.68,-70.15 59.22,-70.15 25,0 50.53,11.24 76.96,33.89l531.59 462.57 0 -450.23c0,-20.49 8.32,-33.54 25,-38.8 4.78,-0.72 11.34,-1.44 19.67,-1.99 8.33,-0.55 18.27,-0.72 30.15,-0.72 27.3,0 40.96,13.77 40.96,41.51l0 535.78zm197.87 27.55c0,27.91 -13.47,41.87 -40.43,41.87 -11.87,0 -21.8,-0.19 -30.13,-0.73 -8.34,-0.54 -14.9,-1.09 -19.69,-1.81 -16.67,-5.25 -25,-18.49 -25,-39.33l0 -563.33c0,-20.85 8.16,-33.9 24.47,-38.8 3.72,-0.72 9.75,-1.44 18.09,-1.99 8.33,-0.55 18.96,-0.72 32.26,-0.72 26.96,0 40.43,13.77 40.43,41.32l0 563.52zm958.39 -572.04c0,8.88 -4.08,19.59 -12.06,31.9l-373.95 543.76c-18.27,26.29 -41.31,39.34 -69.15,39.34 -28.38,0 -51.43,-12.87 -68.98,-38.79l-375.02 -544.31c-7.98,-12.31 -12.06,-23.02 -12.06,-31.9 0,-23.01 18.97,-34.43 56.75,-34.43 28.72,0 47.52,6.34 56.56,19.02l342.75 500.26 341.32 -500.26c8.69,-12.68 27.66,-19.02 56.74,-19.02 37.95,0 57.1,11.42 57.1,34.43zm741.87 290.55c0,34.25 -14.36,51.48 -43.08,51.48l-555.35 0 0 106.21c0,45.68 49.3,68.52 148.06,68.52l407.29 0c26.95,0 40.43,13.96 40.43,41.87 0,36.79 -13.48,55.28 -40.43,55.28l-412.43 0c-60.29,0 -115.61,-11.06 -165.79,-32.98 -61.7,-28.65 -92.56,-71.42 -92.56,-128.52l0 -320.63c0,-30.82 10.29,-58.74 30.68,-83.93 44.33,-53.82 123.58,-80.65 237.42,-80.65l112.77 0c26.6,0 40.07,18.13 40.07,54.19 0,27.92 -13.47,41.87 -40.07,41.87l-16.67 0 -10.28 0 -5.85 0c-3.73,0 -5.86,-0.18 -6.21,-0.54 -8.69,-0.36 -16.13,-0.55 -22.34,-0.72 -6.21,-0.19 -11.34,-0.38 -15.6,-0.38 -126.43,0 -189.55,23.39 -189.55,70.16l0 113.1 556.94 0c28.37,0 42.55,15.22 42.55,45.67zm836.03 -81.74c0,58.36 -30.14,101.14 -90.42,127.96 -47.71,19.76 -102.85,29.73 -165.08,29.73l-190.09 0 385.48 167.3c20.4,9.24 30.68,22.84 30.68,40.78 0,26.63 -22.7,39.87 -68.09,39.87 -18.08,0 -32.27,-1.45 -42.55,-4.17l-526.27 -230.01 0 191.77c0,27.91 -13.48,41.87 -40.42,41.87 -28.74,0 -45.4,-1.27 -49.83,-3.63 -16.67,-5.26 -25.01,-18.12 -25.01,-38.24l0 -563.33c0,-27.74 13.49,-41.51 40.43,-41.51l464.39 0c71.99,0 131.21,9.61 177.67,28.63 66.13,27.37 99.11,72.33 99.11,134.86l0 78.12zm-115.25 1.08l0 -81.74c0,-43.32 -54.08,-64.89 -162.06,-64.89l-389.03 0 0 207.18 409.78 0c94.14,0 141.31,-20.12 141.31,-60.55zm887.28 243.79c0,34.62 -5.32,61.62 -16.14,81.21 -28.73,52.74 -115.61,79.02 -260.82,79.02l-399.32 0c-26.77,0 -40.07,-13.96 -40.07,-41.87 0,-19.21 2.13,-32.45 6.21,-39.88 5.85,-10.32 17.2,-15.4 33.86,-15.4l399.49 0c107.63,0 161.53,-20.3 161.53,-61.09l0 -55.64c0,-39.69 -52.13,-61.26 -156.39,-64.89l-191.67 -6.35c-9.05,-0.36 -21.81,-0.9 -38.31,-1.8 -16.3,-0.91 -36.52,-2.19 -60.46,-3.99 -41.49,-4.9 -77.31,-18.86 -107.09,-41.87 -32.45,-25.56 -48.77,-59.09 -48.77,-100.42l0 -48.93c0,-75.4 40.79,-125.07 122.53,-149.18 39.18,-10.33 110.82,-15.4 215.09,-15.4 26.94,0 40.42,18.13 40.42,54.19 0,20.85 -7.98,33.9 -24.29,39.15 -2.48,1.46 -18.98,2.18 -49.47,2.18 -126.08,0 -189.02,22.66 -189.02,67.97l0 45.31c0,27.92 23.58,46.22 70.75,54.74 8.86,1.64 21.99,3.08 39.19,3.98 17.02,0.91 38.12,1.27 63.12,1.27l154.26 0c73.77,0 131.92,9.8 174.66,29.18 67.19,28.28 100.71,71.78 100.71,130.51l0 58zm176.6 118.36c0,27.91 -13.48,41.87 -40.43,41.87 -11.87,0 -21.8,-0.19 -30.13,-0.73 -8.34,-0.54 -14.9,-1.09 -19.69,-1.81 -16.67,-5.25 -25,-18.49 -25,-39.33l0 -563.33c0,-20.85 8.16,-33.9 24.47,-38.8 3.72,-0.72 9.75,-1.44 18.08,-1.99 8.33,-0.55 18.97,-0.72 32.27,-0.72 26.95,0 40.43,13.77 40.43,41.32l0 563.52zm869.02 -132.87c0,60.92 -29.96,107.12 -89.9,138.67 -46.45,24.11 -103.03,36.07 -169.87,36.07l-488.14 0c-27.13,0 -40.6,-13.96 -40.6,-41.87l0 -563.52c0,-27.55 13.47,-41.32 40.6,-41.32l490.8 0c171.47,0 257.11,54.92 257.11,164.58l0 307.39zm-114.37 -0.54l0 -306.31c0,-25.19 -18.62,-43.86 -56.03,-56.37 -26.78,-8.52 -56.74,-12.69 -89.9,-12.69l-412.96 0 0 453.5 410.84 0c35.63,0 66.49,-4.72 92.55,-14.33 37.06,-13.41 55.5,-34.8 55.5,-63.8zm1018.83 131.42c0,16.12 -5.32,29.9 -16.13,40.78 -10.63,11.05 -23.93,16.49 -39.9,16.49 -22.16,0 -40.25,-10.69 -54.08,-31.9l-102.31 -151.89 -486.19 0 -102.3 151.89c-11.18,16.67 -23.06,25.01 -35.83,25.01 -12.94,0 -25.17,-4.17 -36.88,-12.68 -13.3,-9.24 -19.86,-20.12 -19.86,-32.46 0,-3.98 1.07,-7.42 3.2,-10.68l364.56 -569.86c14.88,-23.38 40.6,-34.99 76.95,-34.99 26.95,0 45.03,7.8 54.08,23.39 0.71,1.08 1.42,2.54 2.3,4.53 0.89,1.99 2.13,4.35 3.91,7.07l386.54 559.34c1.23,2.36 1.94,7.79 1.94,15.96zm-279.97 -224.21l-175.01 -263.91 -176.07 263.91 351.08 0zm1121.51 93.33c0,60.92 -29.97,107.12 -89.91,138.67 -46.45,24.11 -103.02,36.07 -169.87,36.07l-488.13 0c-27.14,0 -40.61,-13.96 -40.61,-41.87l0 -563.52c0,-27.55 13.47,-41.32 40.61,-41.32l490.8 0c171.46,0 257.11,54.92 257.11,164.58l0 307.39zm-114.38 -0.54l0 -306.31c0,-25.19 -18.61,-43.86 -56.02,-56.37 -26.78,-8.52 -56.75,-12.69 -89.91,-12.69l-412.96 0 0 453.5 410.85 0c35.63,0 66.48,-4.72 92.55,-14.33 37.06,-13.41 55.49,-34.8 55.49,-63.8zm1284.28 0.54c0,60.92 -29.97,107.12 -89.9,138.67 -46.45,24.11 -103.02,36.07 -169.87,36.07l-488.14 0c-27.13,0 -40.6,-13.96 -40.6,-41.87l0 -563.52c0,-27.55 13.47,-41.32 40.6,-41.32l490.8 0c171.47,0 257.11,54.92 257.11,164.58l0 307.39zm-114.37 -0.54l0 -306.31c0,-25.19 -18.62,-43.86 -56.03,-56.37 -26.77,-8.52 -56.74,-12.69 -89.9,-12.69l-412.97 0 0 453.5 410.85 0c35.63,0 66.48,-4.72 92.55,-14.33 37.06,-13.41 55.5,-34.8 55.5,-63.8zm890.11 -148.08c0,34.25 -14.36,51.48 -43.08,51.48l-555.35 0 0 106.21c0,45.68 49.29,68.52 148.06,68.52l407.29 0c26.94,0 40.42,13.96 40.42,41.87 0,36.79 -13.48,55.28 -40.42,55.28l-412.44 0c-60.28,0 -115.6,-11.06 -165.78,-32.98 -61.71,-28.65 -92.56,-71.42 -92.56,-128.52l0 -320.63c0,-30.82 10.29,-58.74 30.67,-83.93 44.33,-53.82 123.58,-80.65 237.43,-80.65l112.76 0c26.6,0 40.08,18.13 40.08,54.19 0,27.92 -13.48,41.87 -40.08,41.87l-16.66 0 -10.29 0 -5.85 0c-3.72,0 -5.85,-0.18 -6.21,-0.54 -8.69,-0.36 -16.13,-0.55 -22.34,-0.72 -6.2,-0.19 -11.34,-0.38 -15.6,-0.38 -126.42,0 -189.55,23.39 -189.55,70.16l0 113.1 556.95 0c28.37,0 42.55,15.22 42.55,45.67zm-8392.27 1534.5c0,28.67 -11.72,46.96 -35.15,54.33 -9.72,2.79 -32.9,4.31 -70.05,4.31 -37.89,0 -56.84,-19.54 -56.84,-58.64l0 -586.17 -478.38 601.15c-25.43,31.73 -59.84,47.47 -102.96,47.47 -43.87,0 -78.53,-15.74 -103.96,-47.47l-487.11 -603.95 0 588.97c0,39.09 -18.95,58.64 -56.84,58.64 -37.64,0 -60.83,-1.52 -70.05,-4.31 -23.43,-7.37 -35.15,-25.64 -35.15,-54.33l0 -760.07c0,-56.11 30.16,-84.04 90.49,-84.04 39.39,0 71.05,14.48 94.99,43.17l569.62 686.45 556.67 -687.22c23.43,-28.68 54.09,-43.16 91.98,-43.16 61.83,0 92.74,30.48 92.74,91.4l0 753.47zm3160.34 -766.17c0,-45.44 19.7,-68.29 59.33,-68.29l583.01 0c65.58,0 77.4,32.41 77.34,67.02 -0.03,17.99 -5.31,30.84 -17.2,44.86 -4.66,6.09 -10.31,11.94 -17.01,17.6l-6.95 5.99c-9.42,8.35 -20.64,17.79 -33.82,29.1l-0.46 0.4 -2.59 2.23 -685.11 589.83 704.01 0c39.63,0 59.33,22.6 59.33,67.78 0,45.44 -19.71,68.29 -59.33,68.29l-812.69 0c-35.15,0 -64.57,-6.6 -88.5,-20.05 -30.16,-16.51 -45.12,-40.62 -45.12,-72.86 0,-20.82 8.47,-38.59 25.43,-53.57l80.36 -69.51c4.63,-6.03 10.27,-11.9 16.86,-17.56l607.32 -522.37 1.28 -1.11 -386.16 0c-39.58,0 -59.33,-22.59 -59.33,-67.78zm-1827.63 763.37c0,22.6 -7.48,41.9 -22.68,57.13 -14.97,15.49 -33.66,23.1 -56.1,23.1 -31.16,0 -56.58,-14.98 -76.02,-44.68l-143.85 -212.74 -683.55 0 -143.84 212.74c-15.71,23.35 -32.41,35.03 -50.36,35.03 -18.2,0 -35.4,-5.84 -51.85,-17.77 -18.69,-12.95 -27.92,-28.18 -27.92,-45.44 0,-5.58 1.49,-10.41 4.48,-14.98l512.55 -798.15c20.94,-32.75 57.08,-49 108.19,-49 37.89,0 63.32,10.91 76.03,32.75 0.99,1.53 2,3.55 3.24,6.34 1.25,2.79 3,6.1 5.48,9.91l543.46 783.42c1.74,3.31 2.74,10.92 2.74,22.34zm-393.63 -314.02l-246.04 -369.63 -247.56 369.63 493.6 0zm1574.02 278.23c0,68.78 -29.66,103.33 -89.24,103.33 -27.18,0 -58.09,-14.73 -92.74,-43.93l-757.6 -655.22 0 634.41c0,29.18 -11.7,47.72 -35.15,55.09 -6.72,1.01 -15.94,1.78 -27.66,2.54 -11.72,0.76 -25.69,1.01 -42.39,1.01 -37.88,0 -56.83,-19.54 -56.83,-58.64l0 -755.5c0,-65.5 27.67,-98.25 83.26,-98.25 35.15,0 71.05,15.74 108.2,47.47l747.37 647.87 0 -630.61c0,-28.68 11.71,-46.96 35.15,-54.32 6.73,-1.01 15.95,-2.05 27.67,-2.8 11.71,-0.75 25.68,-1.01 42.38,-1.01 38.39,0 57.58,19.3 57.58,58.13l0 750.43zm278.21 38.59c0,39.08 -18.95,58.64 -56.83,58.64 -16.7,0 -30.68,-0.25 -42.39,-1.01 -11.71,-0.75 -20.94,-1.53 -27.66,-2.54 -23.45,-7.37 -35.16,-25.9 -35.16,-55.09l0 -789.02c0,-29.19 11.47,-47.47 34.41,-54.32 5.23,-1.01 13.71,-2.05 25.43,-2.8 11.69,-0.75 26.67,-1.01 45.37,-1.01 37.88,0 56.83,19.3 56.83,57.88l0 789.27zm2388.71 -2.8c0,22.6 -7.48,41.9 -22.68,57.13 -14.97,15.49 -33.66,23.1 -56.1,23.1 -31.16,0 -56.58,-14.98 -76.02,-44.68l-143.85 -212.74 -683.55 0 -143.84 212.74c-15.72,23.35 -32.41,35.03 -50.36,35.03 -18.2,0 -35.41,-5.84 -51.86,-17.77 -18.69,-12.95 -27.91,-28.18 -27.91,-45.44 0,-5.58 1.49,-10.41 4.48,-14.98l512.54 -798.15c20.95,-32.75 57.09,-49 108.2,-49 37.89,0 63.32,10.91 76.03,32.75 0.99,1.53 2,3.55 3.24,6.34 1.25,2.79 3,6.1 5.48,9.91l543.46 783.42c1.74,3.31 2.74,10.92 2.74,22.34zm-393.63 -314.02l-246.04 -369.63 -247.56 369.63 493.6 0zm1453.12 316.82c0,39.1 -18.96,58.64 -56.85,58.64l-520.01 0c-118.9,0 -211.65,-10.92 -278.21,-32.75 -102.71,-36.04 -154.06,-104.84 -154.06,-205.88l0 -609.28c0,-38.59 18.94,-57.88 56.83,-57.88 36.65,0 59.83,1.53 70.06,4.57 23.43,6.85 35.14,24.89 35.14,53.56l0 609.03c0,46.95 37.41,77.94 112.44,92.91 23.93,6.35 79.52,9.65 166.53,9.65l511.28 0c37.9,0 56.85,25.9 56.85,77.43zm1086.4 -394.25c0,47.98 -20.21,72.1 -60.58,72.1l-780.77 0 0 148.76c0,63.96 69.3,95.96 208.15,95.96l572.62 0c37.89,0 56.84,19.55 56.84,58.64 0,51.54 -18.96,77.43 -56.84,77.43l-579.84 0c-84.75,0 -162.54,-15.48 -233.09,-46.2 -86.76,-40.11 -130.13,-100.02 -130.13,-179.99l0 -449.09c0,-43.16 14.45,-82.25 43.12,-117.54 62.32,-75.4 173.76,-112.97 333.8,-112.97l158.55 0c37.4,0 56.34,25.38 56.34,75.9 0,39.1 -18.95,58.65 -56.34,58.65l-23.43 0 -14.46 0 -8.23 0c-5.22,0 -8.22,-0.26 -8.72,-0.76 -12.22,-0.51 -22.69,-0.77 -31.41,-1.02 -8.72,-0.25 -15.95,-0.51 -21.94,-0.51 -177.74,0 -266.49,32.76 -266.49,98.25l0 158.41 783.02 0c39.88,0 59.83,21.32 59.83,63.98zm1068.96 228.47c0,48.47 -7.49,86.32 -22.69,113.73 -40.39,73.88 -162.55,110.69 -366.71,110.69l-561.4 0c-37.63,0 -56.34,-19.54 -56.34,-58.64 0,-26.91 3,-45.44 8.72,-55.85 8.23,-14.47 24.19,-21.58 47.62,-21.58l561.65 0c151.32,0 227.1,-28.43 227.1,-85.55l0 -77.94c0,-55.59 -73.28,-85.81 -219.87,-90.88l-269.48 -8.89c-12.72,-0.5 -30.67,-1.27 -53.85,-2.54 -22.93,-1.25 -51.36,-3.04 -85,-5.58 -58.34,-6.86 -108.7,-26.4 -150.58,-58.65 -45.62,-35.79 -68.55,-82.75 -68.55,-140.64l0 -68.54c0,-105.61 57.34,-175.17 172.25,-208.93 55.1,-14.47 155.82,-21.58 302.4,-21.58 37.89,0 56.83,25.38 56.83,75.9 0,29.2 -11.21,47.48 -34.15,54.84 -3.49,2.03 -26.67,3.05 -69.55,3.05 -177.25,0 -265.75,31.74 -265.75,95.2l0 63.47c0,39.08 33.16,64.73 99.48,76.66 12.46,2.28 30.91,4.32 55.09,5.59 23.93,1.27 53.59,1.77 88.74,1.77l216.89 0c103.71,0 185.47,13.71 245.55,40.87 94.48,39.6 141.6,100.55 141.6,182.78l0 81.24z"/>
   <g>
    <polygon class="fil1" points="3082.39,39.52 3082.37,4810.85 6555.38,4918.86 7063.41,479.44 "/>
    <g>
     <g style="clip-path:url(#id0)">
      <image x="5163.98" y="559.8" width="964.34" height="4262.3" xlink:href="LOGO UManizales_Images\LOGO UManizales_ImgID1.png"/>
     </g>
    </g>
    <g>
     <path class="fil2" d="M5430.38 754.82l-145.88 -50.97 8.84 -26.46 145.88 50.97 9.11 11.21 -17.95 15.25zm8.84 -26.46l7.9 2.76 1.21 8.45 -9.11 -11.21zm548.42 3970.1l-566.37 -3954.85 27.06 -4.04 566.37 3954.85 -13.88 15.99 -13.18 -11.95zm27.06 -4.04l2.35 16.41 -16.23 -0.42 13.88 -15.99zm-725.43 -30.46l712.25 18.51 -0.7 27.94 -712.25 -18.51 -13.32 -13.97 14.02 -13.97zm-0.7 27.94l-13.32 -0.35 0 -13.62 13.32 13.97zm14.02 -4001.28l0 3987.31 -27.34 0 0 -3987.31 18.09 -13.23 9.25 13.23zm-27.34 0l0 -19.55 18.09 6.32 -18.09 13.23z"/>
     <polygon id="1" class="fil0" points="5288.92,690.62 5434.8,741.59 6001.17,4696.44 5288.92,4677.93 "/>
    </g>
    <polygon class="fil2" style="mask:url(#id1)" points="5288.93,690.62 5434.8,741.59 6001.18,4696.44 5288.93,4677.93 "/>
    <g>
     <g style="clip-path:url(#id3)">
      <image x="2901.14" y="0" width="3717.24" height="4478.69" xlink:href="LOGO UManizales_Images\LOGO UManizales_ImgID2.png"/>
     </g>
    </g>
    <g>
     <path class="fil3 str0" d="M3333.03 2087.94c0,0 2041.48,4279.96 2853.46,-1655.99 0,0 -565.88,6882.37 -2853.46,1655.99z"/>
     <path id="1" class="fil4" d="M3333.03 2087.94c0,0 2041.48,4279.96 2853.46,-1655.99 0,0 -565.88,6882.37 -2853.46,1655.99z"/>
    </g>
    <g id="_1703380708512">
     <g style="clip-path:url(#id4)">
      <image x="3598.59" y="559.8" width="964.34" height="4262.3" xlink:href="LOGO UManizales_Images\LOGO UManizales_ImgID3.png"/>
     </g>
    </g>
    <g>
     <path class="fil2" d="M4287.71 728.36l145.86 -50.97 8.84 26.46 -145.86 50.97 -17.95 -15.25 9.11 -11.21zm-9.11 11.21l1.21 -8.45 7.9 -2.76 -9.11 11.21zm-566.39 3954.85l566.39 -3954.85 27.06 4.04 -566.39 3954.85 -13.18 11.95 -13.88 -15.99zm13.88 15.99l-16.23 0.42 2.35 -16.41 13.88 15.99zm712.25 -18.51l-712.25 18.51 -0.7 -27.94 712.25 -18.51 14.02 13.97 -13.32 13.97zm13.32 -13.97l0 13.62 -13.32 0.35 13.32 -13.97zm0 -3987.31l0 3987.31 -27.34 0 0 -3987.31 9.25 -13.23 18.09 13.23zm-18.09 -13.23l18.09 -6.32 0 19.55 -18.09 -13.23z"/>
     <polygon id="1" class="fil0" points="4437.99,690.62 4292.13,741.59 3725.74,4696.44 4437.99,4677.93 "/>
    </g>
    <polygon class="fil2" style="mask:url(#id5)" points="4437.99,690.62 4292.13,741.59 3725.74,4696.44 4437.99,4677.93 "/>
   </g>
   <path class="fil5" d="M10008.62 6990.66c0,41.21 2.51,59.9 15.03,97.39 2.56,7.66 6.26,15.59 9.55,22.96 12.63,28.31 31.84,54.21 52.49,74.85 25.74,25.75 61.21,49.61 97.15,61.83 37.32,12.68 57.3,15.25 98.05,15.25 79,0 162.49,-46.65 206.58,-111.37 2.31,-3.39 4.24,-5.64 6.49,-9.33l14.31 -25.21c1.06,-2.54 1.62,-3.82 2.74,-6.04 12.14,-23.99 24.59,-66.68 24.59,-102.76 0,-49.55 -5.58,-77.72 -24.58,-120.33 -31.41,-70.46 -98.86,-125.29 -173.91,-144.04 -18.12,-4.53 -35.8,-7.13 -53.27,-7.91l-22.47 0c-25.96,1.16 -51.66,6.29 -77.86,15.04 -7.66,2.56 -15.57,6.26 -22.96,9.54 -45.4,20.26 -92.84,62.98 -116.22,105.99 -20.73,38.13 -35.71,79.03 -35.71,124.14zm262.53 -214.41c-122.41,0 -221.65,99.23 -221.65,221.65 0,122.41 99.24,221.65 221.65,221.65 122.42,0 221.65,-99.24 221.65,-221.65 0,-122.42 -99.23,-221.65 -221.65,-221.65z"/>
   <path class="fil5" d="M10157.16 7144.83l45.22 0.07c1.1,-8.27 0.36,-103.7 0.34,-120.22 23.85,0 48.11,-2.27 64.86,10.92 10.6,8.35 19,20.97 27.47,33.11 9.73,13.95 23.58,39.77 33.02,56.59 3.31,5.88 7.4,14.31 11.17,19.56l55.3 0.02c-1.53,-4.04 -40.38,-65.06 -43.13,-69.29 -8.46,-12.94 -26.43,-37.85 -38.37,-46.81 -4.45,-3.35 -12.34,-7.75 -17.64,-10.41 30.96,-5.11 53.57,-13.12 70.39,-42.92 7.17,-12.69 10.95,-29.79 8.75,-46.77 -3.67,-28.42 -25.12,-52.96 -52.64,-60.71 -26.52,-7.47 -78.2,-6.18 -107.76,-6.18 -18.59,-0.01 -38.6,-0.91 -56.98,-0.13l0 283.17zm45.52 -158.85c24.51,-0.56 58.18,1.64 81.34,-1.89 23.07,-3.52 41.41,-13.16 42.6,-39.94 1.13,-25.43 -17.23,-38.9 -40.28,-42.31 -13.22,-1.95 -66.9,-1.7 -83.66,-1.7l0 85.84z"/>
  </g>
 </g>
</svg>
